<svg xmlns="http://www.w3.org/2000/svg" xmlns:xlink="http://www.w3.org/1999/xlink" viewBox="0 0 428.09 148.44"><defs><style>.cls-1{fill:url(#linear-gradient);}.cls-2{fill:#0574bb;}</style><linearGradient id="linear-gradient" x1="152.28" y1="-0.43" x2="152.28" y2="74.83" gradientUnits="userSpaceOnUse"><stop offset="0.21" stop-color="#ed1c24"/><stop offset="0.58" stop-color="#cd1b24"/><stop offset="0.85" stop-color="#95121e"/><stop offset="1" stop-color="#95121e"/></linearGradient></defs><g id="Layer_2" data-name="Layer 2"><g id="Layer_1-2" data-name="Layer 1"><path class="cls-1" d="M7.69,12.38H55.46A69.9,69.9,0,0,0,67.9,26.74c22.48,19.66,52,19.12,75.47,18.35,25.77-.83,45.14-6.44,62.55-11.48,13.38-3.87,26.85-9,53.79-19.17C275.22,8.58,288,3.54,296.87,0a353.3,353.3,0,0,1-42.79,34.8c-21,14.44-36.12,21.51-41,23.7a177.39,177.39,0,0,1-23.39,8.74,178.58,178.58,0,0,1-18.5,4.27A257.86,257.86,0,0,1,136,75.57,162.26,162.26,0,0,1,93.1,73.08c-9.25-1.8-24.42-4.74-40.43-13.69C28.26,45.74,14.56,25.2,7.69,12.38Z"/><path class="cls-2" d="M91.4,146.88H70.86L39.61,90.35c-.28-.49-.58-1.07-.91-1.74s-.65-1.33-1-2-.63-1.34-.91-2A11,11,0,0,1,36.2,83h-.42c-.23,1.53-.49,3.25-.77,5.15a47.48,47.48,0,0,1-1.18,5.64L21.09,146.88H0l21.09-89H43.37L73.3,112.32c.23.46.52,1,.87,1.64s.69,1.31,1,2,.67,1.36,1,2a12.77,12.77,0,0,1,.66,1.73h.28q.06-.93.21-2.07c.09-.77.2-1.55.34-2.33s.29-1.55.46-2.3.31-1.4.45-2L91.26,57.9h21.23Z"/><path class="cls-2" d="M179,146.88l-2.85-19.79H140.4l-11.69,19.79H103.37l57.56-89h26.8l14.27,89Zm-8.14-65.22c0-.66-.08-1.39-.11-2.2s0-1.58,0-2.33.06-1.41.11-2,.09-1.05.14-1.34h-.42a11.13,11.13,0,0,1-.49,1.43c-.23.58-.5,1.21-.8,1.89s-.65,1.4-1,2.14-.8,1.47-1.22,2.18L148.82,111.7h25.69Z"/><path class="cls-2" d="M285,78.5c-1.44-.79-3-1.56-4.77-2.33a47.28,47.28,0,0,0-5.57-2,54.15,54.15,0,0,0-6.23-1.43,40.67,40.67,0,0,0-6.82-.56,20.17,20.17,0,0,0-6.68,1,13,13,0,0,0-4.32,2.39,8.78,8.78,0,0,0-2.3,3.07,8,8,0,0,0-.69,3.07,9.41,9.41,0,0,0,.73,3.76,10.67,10.67,0,0,0,2.29,3.29,24.94,24.94,0,0,0,4.11,3.22c1.69,1.1,3.75,2.31,6.16,3.64a80.08,80.08,0,0,1,8.39,5.24,35.34,35.34,0,0,1,6.23,5.65,21.5,21.5,0,0,1,3.9,6.54,22.62,22.62,0,0,1,1.32,8,26.51,26.51,0,0,1-.66,5.58,24.38,24.38,0,0,1-6.68,12,27.47,27.47,0,0,1-7.07,5,43.54,43.54,0,0,1-10.2,3.5,63.85,63.85,0,0,1-13.88,1.34,70.09,70.09,0,0,1-8.67-.53,74.56,74.56,0,0,1-8-1.43q-3.8-.9-7.07-2a57.12,57.12,0,0,1-5.78-2.29l3.83-17.63a54,54,0,0,0,11.94,5.78,46.21,46.21,0,0,0,6.86,1.73,40.83,40.83,0,0,0,7.17.62,25.38,25.38,0,0,0,6.75-.77,12.93,12.93,0,0,0,4.52-2.14,8,8,0,0,0,2.51-3.17,9.72,9.72,0,0,0,.76-3.85,9,9,0,0,0-.73-3.69,9.48,9.48,0,0,0-2.4-3.16,27.67,27.67,0,0,0-4.42-3.17q-2.74-1.64-6.72-3.69a59.75,59.75,0,0,1-7.72-4.56,30.59,30.59,0,0,1-6-5.46,22.49,22.49,0,0,1-5.29-14.93A25.12,25.12,0,0,1,226,74a24.39,24.39,0,0,1,6.75-8.87,34.91,34.91,0,0,1,11.73-6.3,53.92,53.92,0,0,1,17-2.39,75.29,75.29,0,0,1,7.93.4c2.56.27,5,.63,7.31,1.09s4.5,1,6.55,1.55,3.9,1.18,5.57,1.8Z"/><path d="M339.59,127.82a47.13,47.13,0,0,1-2.51,8.29,19.64,19.64,0,0,1-4.07,6.27,16.55,16.55,0,0,1-6.28,4,27,27,0,0,1-9.17,1.37,21.48,21.48,0,0,1-7.05-1.08,14.6,14.6,0,0,1-5.33-3.11,13.84,13.84,0,0,1-3.36-5,17.71,17.71,0,0,1-1.17-6.64,28.6,28.6,0,0,1,.26-3.74c.17-1.36.39-2.62.65-3.8l5.22-24.28h10.65l-5.29,24.35c-.24,1.15-.46,2.3-.66,3.46a18.56,18.56,0,0,0-.29,2.93,9.11,9.11,0,0,0,.57,3.35,6.69,6.69,0,0,0,1.6,2.43,7,7,0,0,0,2.42,1.49,8.79,8.79,0,0,0,3,.5,10.46,10.46,0,0,0,3.46-.55,7.52,7.52,0,0,0,2.88-1.83,11.57,11.57,0,0,0,2.25-3.38,24.23,24.23,0,0,0,1.63-5.2l5.94-27.55h10.64Z"/><path d="M374.71,146.88l-1.33-10.41H356.6l-5.49,10.41H339.23l27-46.8h12.56l6.7,46.8Zm-3.82-34.3c0-.35,0-.74,0-1.16s0-.83,0-1.23,0-.74,0-1.06.05-.55.07-.7h-.2a6.84,6.84,0,0,1-.22.75c-.11.31-.24.64-.38,1s-.3.73-.49,1.12-.38.78-.57,1.15l-8.55,15.93h12Z"/><path d="M426.26,108.66H409.9l-2.22,10.54h15.25l-1.86,8.62H405.89l-2.29,10.51h17.47l-1.83,8.55H391.17l9.95-46.8h27Z"/></g></g></svg>