<svg xmlns="http://www.w3.org/2000/svg" viewBox="0 0 286.14 111.02"><defs><style>.cls-1,.cls-2{fill:none;stroke:#6e6f72;stroke-miterlimit:10;stroke-width:1.5px;}.cls-2{stroke-linecap:round;}.cls-3{fill:#6e6f72;}.cls-4{fill:#4d318c;}</style></defs><g id="Layer_2" data-name="Layer 2"><g id="Layer_1-2" data-name="Layer 1"><circle class="cls-1" cx="163.5" cy="92.35" r="17.92"/><line class="cls-1" x1="195.98" y1="58.62" x2="176.16" y2="80.92"/><circle class="cls-1" cx="233.47" cy="84.13" r="12.63"/><line class="cls-2" x1="211.53" y1="50.92" x2="227.27" y2="72.96"/><circle class="cls-1" cx="246.1" cy="9.22" r="8.47"/><line class="cls-1" x1="224.7" y1="31.72" x2="240.51" y2="15.91"/><circle class="cls-1" cx="186.35" cy="9.22" r="8.47"/><line class="cls-2" x1="199.46" y1="28.91" x2="188.86" y2="11.74"/><path class="cls-3" d="M209.64,25.24A20.79,20.79,0,1,0,230.42,46,20.78,20.78,0,0,0,209.64,25.24Zm0,33A12.2,12.2,0,1,1,221.84,46,12.19,12.19,0,0,1,209.64,58.22Z"/><path class="cls-4" d="M284.6,34a13.18,13.18,0,0,0-1.91-3.29c-5.23-6.63-15.18-5.61-22.69-5.61H247v42h12.47c0-9.45,0-18.84,0-28.29,0-2.51,0-5,0-7.54a.74.74,0,0,1,.08-.39.69.69,0,0,1,.56-.21c2.51-.13,5.82-.32,8.25.5,5.25,1.76,5.56,7.9,5.56,12.58V67.06H286c.1-5.27,0-10.44,0-15.71C286,45.79,286.77,39.32,284.6,34Z"/><path class="cls-4" d="M37.6,34a13.18,13.18,0,0,0-1.91-3.29C30.46,24.07,20.51,25.09,13,25.09H0v42H12.47c0-9.45,0-18.84,0-28.29,0-2.51,0-5,0-7.54a.74.74,0,0,1,.08-.39.69.69,0,0,1,.56-.21c2.51-.13,5.82-.32,8.25.5,5.25,1.76,5.56,7.9,5.56,12.58V67.06H39c.1-5.27,0-10.44,0-15.71C39,45.79,39.77,39.32,37.6,34Z"/><path class="cls-4" d="M104.54,58.1a13.45,13.45,0,0,0,1.9,3.29C111.68,68,121.62,67,129.13,67h13V25H129.67c0,9.45,0,18.84,0,28.29v7.54a.74.74,0,0,1-.07.39.7.7,0,0,1-.56.21c-2.52.13-5.82.32-8.25-.5-5.26-1.76-5.56-7.9-5.56-12.58V25H103.18c-.11,5.27,0,10.44,0,15.71C103.11,46.3,102.37,52.77,104.54,58.1Z"/><path class="cls-4" d="M155.48,25.09v42h11.93c0-9.24-.06-19-.23-28.19-.09-4.57,1.55-8.37,6.61-8.33.39,0,6.7,0,6.7,0V25.09Z"/><path class="cls-4" d="M89.81,38.11c0-3.27,0-6.72-2.61-9.09a14.44,14.44,0,0,0-7.33-3.16c-.31-.05-2.16-.77-12.72-.77-3.61,0-7.48.37-10.61,2.34-5.57,3.5-4.69,11.88-4.69,17.5,0,7.31-1.6,14.59,4.65,19.89a10.06,10.06,0,0,0,4.72,2.1,11.31,11.31,0,0,0,2.17.14H84.76l0-5.58H76c-2.8,0-9.38.6-11.06-2.24s-1-7-1.28-10.21L89.77,49C89.9,49,89.81,38.9,89.81,38.11ZM77.81,43H63.75c0-1.31,0-2.61,0-3.92,0-3.24,1.74-6.61,5-7.61A6.9,6.9,0,0,1,76,33.54C78.05,36.05,77.81,40,77.81,43Z"/><path class="cls-3" d="M64.83,90.06c0,2.4-.11,5-1.91,6.5s-4.78,1.37-7.62,1.37h-.62V94.82c1.68,0,4,.27,5.12-.65s1-2.29,1-3.92V77.83h4Z"/><path class="cls-3" d="M92.5,89.16v2.6H86.82a5.84,5.84,0,0,1-3.21,4.8,13.32,13.32,0,0,1-6.33,1.24H71.91v-3l4.76,0c1.62,0,3.09.16,4.3-.54a3.15,3.15,0,0,0,1.86-2.54c-1.59,0-2.77-.08-3.53-.13q-5-.19-7.48-2.34a5.83,5.83,0,0,1-2.11-4.66,6.38,6.38,0,0,1,2.66-5.45,10.41,10.41,0,0,1,6.28-1.74,10.15,10.15,0,0,1,6.29,1.7,4.85,4.85,0,0,1,1.88,4v6.1Zm-9.67-5.9c0-2.19-1.4-3.28-4.18-3.28a5.3,5.3,0,0,0-3.71,1.21,4.27,4.27,0,0,0-1.33,3.35q0,4.2,5.87,4.46c.73.07,1.85.12,3.35.16Z"/><path class="cls-3" d="M22.8,80.8V90A4.29,4.29,0,0,1,21,93.62c-1.47,1.1-3.57,1.2-6.26,1.2-2.32,0-4.21-.09-5.71-1.16a5.28,5.28,0,0,1-2.38-4.43,8.29,8.29,0,0,1,2-5.4l-4,0C3.4,85.08,3,87.72,3,89.52a7,7,0,0,0,2.52,5.39q3.3,3,9.26,3a16,16,0,0,0,8.35-2q3.68-2.18,3.67-5.87V80.78Z"/><path class="cls-3" d="M105.71,89.16q-4.5,0-4.5-3.21V77.83H97.27V86q0,3.21-4.49,3.21h-3v2.6h3.49a9.53,9.53,0,0,0,6-1.7,9.56,9.56,0,0,0,6,1.7h3.49v-2.6Z"/><path class="cls-3" d="M113.5,86c0,2.14-1.49,3.21-4.49,3.21h-3v2.6h3.49a10.16,10.16,0,0,0,5.64-1.41,4.92,4.92,0,0,0,2.34-4.3V77.83h-4Z"/><rect class="cls-3" x="113.5" y="72.78" width="3.94" height="3.01"/><rect class="cls-3" x="14.5" y="77.78" width="3.94" height="3.01"/><rect class="cls-3" x="100.49" y="93.62" width="3.94" height="3.01"/><rect class="cls-3" x="94.49" y="93.62" width="3.94" height="3.01"/><path class="cls-3" d="M49.82,89.16v-6.1a4.85,4.85,0,0,0-1.88-4,10.15,10.15,0,0,0-6.29-1.7,10.41,10.41,0,0,0-6.28,1.74,6.38,6.38,0,0,0-2.66,5.45,5.83,5.83,0,0,0,2.11,4.66q2.52,2.14,7.48,2.34c.76.05,1.94.09,3.53.13A3.15,3.15,0,0,1,44,94.27c-1.21.7-2.68.54-4.3.54l-4.76,0v3h5.37a13.32,13.32,0,0,0,6.33-1.24,5.84,5.84,0,0,0,3.21-4.8Zm-4,0c-1.5,0-2.62-.09-3.35-.16q-5.86-.25-5.87-4.46a4.27,4.27,0,0,1,1.33-3.35A5.3,5.3,0,0,1,41.65,80c2.78,0,4.18,1.09,4.18,3.28Z"/></g></g></svg>