<svg xmlns="http://www.w3.org/2000/svg" xmlns:xlink="http://www.w3.org/1999/xlink" viewBox="0 0 204.59 47.86"><defs><style>.cls-1{fill:url(#linear-gradient);}</style><linearGradient id="linear-gradient" y1="23.93" x2="204.59" y2="23.93" gradientUnits="userSpaceOnUse"><stop offset="0" stop-color="#3560fb"/><stop offset="1" stop-color="#70c3fc"/></linearGradient></defs><g id="Layer_2" data-name="Layer 2"><g id="Layer_1-2" data-name="Layer 1"><polygon class="cls-1" points="38.96 0 38.96 8.31 48.38 8.29 48.38 47.72 56.7 47.72 56.7 8.29 66.16 8.31 66.16 0 38.96 0"/><path class="cls-1" d="M85,0C74.45,0,68.06,9.85,68.06,23.85S74.51,47.72,85,47.72c9.28,0,16.79-6.81,16.79-24.37C101.76,10.73,96,0,85,0Zm-.06,39.32c-5.29,0-9-5.24-9-15.4,0-9.78,3.83-15.71,9-15.71,5.61,0,9.16,7.25,9.16,15.71C94.07,33.26,90.33,39.33,84.91,39.33Z"/><path class="cls-1" d="M127.84,31.36c0,7.6-2.42,8-6,8-3.29,0-6-.39-6-8l0-31.36h-8.36V30.44c0,11.63,4.67,17.42,14.26,17.42,9.06,0,14.4-5.67,14.4-17.76V0h-8.27Z"/><path class="cls-1" d="M141.76,24.58c.42,14.43,6.84,23.14,18.83,23.14a21.4,21.4,0,0,0,8-1.58v-8.8c0,.36-5.14,1.38-5.61,1.47a13,13,0,0,1-7-.12c-5.87-2.15-6.22-9.55-6.22-14.82,0-4.67,0-10,4.06-13.1,3-2.26,6.46-2,9.92-1.3.49.1,4.89,1.1,4.89,1.55V1.33c-1-.58-3.45-1-6.87-1.18C151.61-.37,141.24,6.07,141.76,24.58Z"/><polygon class="cls-1" points="204.59 0 195.98 0 195.98 19.3 183.5 19.3 183.5 0 174.91 0 174.91 47.72 183.5 47.72 183.5 28.3 195.98 28.3 195.98 47.72 204.59 47.72 204.59 0"/><path class="cls-1" d="M19.81,8.22C8.87,8.22,0,19.17,0,32.67c0,1,.06,14,.16,15H6.65c-.07-.67-.11-12.57-.11-13.26,0-9,5.94-16.38,13.27-16.38s13.27,7.33,13.27,16.38c0,.69,0,12.59-.11,13.26h6.49c.1-1,.16-14,.16-15C39.62,19.17,30.75,8.22,19.81,8.22Z"/></g></g></svg>